# Blender 4.5.3 LTS
# www.blender.org
mtllib blade.mtl
o blade4
v 0.486136 0.015625 0.441942
v -0.441942 0.015625 -0.486136
v 0.486136 -0.015625 0.441942
v -0.441942 -0.015625 -0.486136
v -0.486136 0.015625 -0.441942
v 0.441942 0.015625 0.486136
v -0.486136 -0.015625 -0.441942
v 0.441942 -0.015625 0.486136
vn -0.7071 -0.0000 -0.7071
vn 0.7071 -0.0000 -0.7071
vn 0.7071 -0.0000 0.7071
vn -0.7071 -0.0000 0.7071
vn -0.0000 1.0000 -0.0000
vn -0.0000 -1.0000 -0.0000
vt 0.484375 0.109375
vt 0.500000 0.109375
vt 0.500000 0.125000
vt 0.484375 0.125000
vt 0.718750 0.828125
vt 0.984375 0.828125
vt 0.984375 0.843750
vt 0.718750 0.843750
vt 0.875000 0.500000
vt 0.890625 0.500000
vt 0.890625 0.515625
vt 0.875000 0.515625
vt 0.718750 0.812500
vt 0.984375 0.812500
vt 0.140625 0.281250
vt 0.125000 0.281250
vt 0.125000 0.015625
vt 0.140625 0.015625
vt 0.156250 0.015625
vt 0.156250 0.281250
s 1
usemtl m_0d327b82-7524-f343-0321-214596c156cd.001
f 4/1/1 7/2/1 5/3/1 2/4/1
f 3/5/2 4/6/2 2/7/2 1/8/2
f 8/9/3 3/10/3 1/11/3 6/12/3
f 7/13/4 8/14/4 6/6/4 5/5/4
f 6/15/5 1/16/5 2/17/5 5/18/5
f 7/19/6 4/18/6 3/15/6 8/20/6
