# Blender 5.1.2
# www.blender.org
mtllib ice machine.mtl
o Cube.001
v 0.375000 -0.875000 -0.250000
v 0.375000 0.375000 -0.250000
v 0.375000 -0.875000 0.437500
v 0.375000 0.375000 0.437500
v -0.375000 -1.000000 -0.312500
v -0.375000 -1.000000 0.500000
v 0.375000 -1.000000 0.500000
v 0.375000 -1.000000 -0.312500
v 0.250000 0.125000 0.312500
v 0.250000 0.125000 -0.125000
v 0.250000 0.375000 -0.125000
v 0.250000 0.375000 0.312500
v 0.250000 -0.875000 0.437500
v 0.250000 -0.875000 -0.250000
v 0.250000 0.375000 -0.250000
v 0.250000 0.375000 0.437500
v 0.375000 0.625000 -0.312500
v 0.375000 0.625000 0.500000
v -0.375000 0.625000 0.500000
v -0.375000 0.625000 -0.312500
vn -0.0000 -1.0000 -0.0000
vn -0.0000 -0.0000 1.0000
vn -1.0000 -0.0000 -0.0000
vn -0.0000 -0.0000 -1.0000
vn 1.0000 -0.0000 -0.0000
vn -0.0000 1.0000 -0.0000
vt 0.687500 0.156250
vt 0.859375 0.156250
vt 0.859375 0.187500
vt 0.687500 0.187500
vt 0.562500 0.203125
vt 0.562500 0.609375
vt 0.375000 0.609375
vt 0.375000 0.203125
vt 0.187500 0.609375
vt 0.187500 0.203125
vt -0.000000 0.609375
vt 0.000000 0.203125
vt 0.187500 0.000000
vt 0.375000 0.000000
vt 0.750000 0.234375
vt 0.578125 0.234375
vt 0.765625 0.203125
vt 0.750000 0.546875
vt 0.765625 0.609375
vt 0.578125 0.546875
vt 0.687500 0.125000
vt 0.859375 0.125000
vt 0.375000 0.125000
vt 0.375000 0.156250
vt 0.375000 0.187500
vt 0.718750 0.484375
vt 0.609375 0.484375
vt 0.718750 0.546875
vt 0.609375 0.546875
vt 0.000000 0.000000
s 0
usemtl Material.001
f 2/1/1 4/2/1 16/3/1 15/4/1
f 7/5/2 18/6/2 19/7/2 6/8/2
f 6/8/3 19/7/3 20/9/3 5/10/3
f 5/10/4 20/9/4 17/11/4 8/12/4
f 7/13/1 6/14/1 5/8/1 8/10/1
f 1/15/5 3/16/5 7/5/5 8/17/5
f 2/18/5 1/15/5 8/17/5 17/19/5
f 4/20/5 2/18/5 17/19/5 18/6/5
f 3/16/5 4/20/5 18/6/5 7/5/5
f 3/21/6 1/22/6 14/2/6 13/1/6
f 4/23/4 3/21/4 13/1/4 16/24/4
f 1/24/2 2/1/2 15/4/2 14/25/2
f 10/26/5 9/27/5 13/16/5 14/15/5
f 11/28/5 10/26/5 14/15/5 15/18/5
f 12/29/6 11/28/6 15/18/6 16/20/6
f 9/27/5 12/29/5 16/20/5 13/16/5
f 17/10/6 20/12/6 19/30/6 18/13/6
o Cube.002
v 0.250000 0.312500 -0.375000
v 0.250000 0.625000 -0.375000
v 0.250000 0.312500 -0.312500
v 0.250000 0.625000 -0.312500
v 0.187500 0.312500 -0.375000
v 0.187500 0.625000 -0.375000
v 0.187500 0.312500 -0.312500
v 0.187500 0.625000 -0.312500
v 0.312500 0.312500 -0.437500
v 0.312500 0.625000 -0.437500
v 0.312500 0.312500 -0.375000
v 0.312500 0.625000 -0.375000
v 0.250000 0.312500 -0.437500
v 0.250000 0.625000 -0.437500
v 0.250000 0.312500 -0.375000
v 0.250000 0.625000 -0.375000
v 0.250000 0.312500 -0.500000
v 0.250000 0.625000 -0.500000
v 0.250000 0.312500 -0.437500
v 0.250000 0.625000 -0.437500
v 0.187500 0.312500 -0.500000
v 0.187500 0.625000 -0.500000
v 0.187500 0.312500 -0.437500
v 0.187500 0.625000 -0.437500
v 0.187500 0.312500 -0.437500
v 0.187500 0.625000 -0.437500
v 0.187500 0.312500 -0.375000
v 0.187500 0.625000 -0.375000
v 0.125000 0.312500 -0.437500
v 0.125000 0.625000 -0.437500
v 0.125000 0.312500 -0.375000
v 0.125000 0.625000 -0.375000
v 0.250000 0.250000 -0.437500
v 0.250000 0.312500 -0.437500
v 0.250000 0.250000 -0.375000
v 0.250000 0.312500 -0.375000
v 0.187500 0.250000 -0.437500
v 0.187500 0.312500 -0.437500
v 0.187500 0.250000 -0.375000
v 0.187500 0.312500 -0.375000
vn 1.0000 -0.0000 -0.0000
vn -1.0000 -0.0000 -0.0000
vn -0.0000 -0.0000 -1.0000
vn -0.0000 -1.0000 -0.0000
vn -0.0000 1.0000 -0.0000
vn -0.0000 -0.0000 1.0000
vt 0.796875 0.281250
vt 0.796875 0.203125
vt 0.812500 0.203125
vt 0.812500 0.281250
vt 0.765625 0.281250
vt 0.765625 0.203125
vt 0.781250 0.203125
vt 0.781250 0.281250
vt 0.796875 0.296875
vt 0.781250 0.296875
vt 0.812500 0.296875
vt 0.812500 0.312500
vt 0.796875 0.312500
vt 0.906250 0.281250
vt 0.906250 0.203125
vt 0.921875 0.203125
vt 0.921875 0.281250
vt 0.828125 0.203125
vt 0.828125 0.281250
vt 0.843750 0.203125
vt 0.843750 0.281250
vt 0.859375 0.203125
vt 0.859375 0.281250
vt 0.796875 0.328125
vt 0.781250 0.328125
vt 0.781250 0.312500
vt 0.812500 0.328125
vt 0.875000 0.203125
vt 0.875000 0.281250
vt 0.890625 0.203125
vt 0.890625 0.281250
vt 0.859375 0.359375
vt 0.875000 0.359375
vt 0.781250 0.343750
vt 0.765625 0.343750
vt 0.765625 0.328125
vt 0.812500 0.343750
vt 0.796875 0.343750
vt 0.828125 0.359375
vt 0.843750 0.359375
vt 0.890625 0.359375
vt 0.812500 0.359375
vt 0.765625 0.312500
vt 0.906250 0.312500
vt 0.890625 0.312500
vt 0.890625 0.296875
vt 0.906250 0.296875
vt 0.906250 0.328125
vt 0.890625 0.328125
vt 0.906250 0.343750
vt 0.890625 0.343750
vt 0.765625 0.296875
s 0
usemtl Material.001
f 21/31/7 22/32/7 24/33/7 23/34/7
f 27/35/8 28/36/8 26/37/8 25/38/8
f 25/38/9 26/37/9 22/32/9 21/31/9
f 23/39/10 27/40/10 25/38/10 21/31/10
f 28/41/11 24/42/11 22/43/11 26/39/11
f 29/44/7 30/45/7 32/46/7 31/47/7
f 31/34/12 32/33/12 36/48/12 35/49/12
f 35/49/8 36/48/8 34/50/8 33/51/8
f 33/51/9 34/50/9 30/52/9 29/53/9
f 31/43/10 35/54/10 33/55/10 29/56/10
f 36/42/11 32/57/11 30/54/11 34/43/11
f 37/53/7 38/52/7 40/58/7 39/59/7
f 39/59/12 40/58/12 44/60/12 43/61/12
f 43/61/8 44/60/8 42/45/8 41/44/8
f 41/62/9 42/53/9 38/59/9 37/63/9
f 39/55/10 43/64/10 41/65/10 37/66/10
f 44/57/11 40/67/11 38/68/11 42/54/11
f 45/69/7 46/49/7 48/51/7 47/70/7
f 47/70/12 48/51/12 52/53/12 51/62/12
f 51/63/8 52/59/8 50/61/8 49/71/8
f 49/72/9 50/34/9 46/49/9 45/69/9
f 47/54/10 51/68/10 49/64/10 45/55/10
f 52/56/11 48/55/11 46/66/11 50/73/11
f 53/74/7 54/75/7 56/76/7 55/77/7
f 55/76/12 56/61/12 60/44/12 59/77/12
f 59/78/8 60/79/8 58/75/8 57/74/8
f 57/80/9 58/81/9 54/79/9 53/78/9
f 55/39/10 59/43/10 57/56/10 53/40/10
f 60/56/11 56/73/11 54/82/11 58/40/11
o Cube.003
v -0.187500 0.625000 -0.187500
v -0.187500 0.625000 0.375000
v 0.187500 0.625000 -0.187500
v 0.187500 0.625000 0.375000
v 0.187500 0.687500 -0.187500
v 0.187500 0.687500 0.375000
v -0.187500 0.687500 0.375000
v -0.187500 0.687500 -0.187500
vn -0.0000 -0.0000 -1.0000
vn -0.0000 -0.0000 1.0000
vn 1.0000 -0.0000 -0.0000
vn -1.0000 -0.0000 -0.0000
vn -0.0000 1.0000 -0.0000
vt 0.765634 0.124964
vt 0.671879 0.125000
vt 0.671875 0.109375
vt 0.765625 0.109375
vt 0.671877 0.093797
vt 0.765625 0.093750
vt 0.531250 0.109375
vt 0.531250 0.093750
vt 0.531250 0.125000
vt 0.531250 0.000000
vt 0.671875 0.000000
vt 0.671870 0.093657
s 0
usemtl Material.001
f 63/83/13 61/84/13 68/85/13 65/86/13
f 62/86/14 64/85/14 66/87/14 67/88/14
f 63/89/15 65/90/15 66/87/15 64/85/15
f 62/91/16 67/89/16 68/85/16 61/84/16
f 66/92/17 65/93/17 68/94/17 67/90/17
o Cube.004
v 0.125000 0.687500 -0.125000
v 0.125000 0.687500 0.312500
v -0.125000 0.687500 0.312500
v -0.125000 0.687500 -0.125000
v -0.125000 0.750000 -0.062500
v 0.125000 0.750000 -0.062500
v 0.125000 0.750000 -0.125000
v -0.125000 0.750000 -0.125000
v -0.125000 0.750000 0.312500
v 0.125000 0.750000 0.312500
v 0.125000 0.687500 -0.062500
v 0.125000 0.687500 0.250000
v -0.125000 0.687500 0.250000
v -0.125000 0.687500 -0.062500
v -0.125000 0.750000 0.250000
v 0.125000 0.750000 0.250000
vn 1.0000 -0.0000 -0.0000
vn -0.0000 -0.0000 1.0000
vn -0.0000 1.0000 -0.0000
vn -0.0000 -0.0000 -1.0000
vn -1.0000 -0.0000 -0.0000
vt 0.703125 0.062500
vt 0.703125 0.078125
vt 0.687500 0.078125
vt 0.687500 0.062500
vt 0.718750 0.000000
vt 0.718750 0.062500
vt 0.703125 0.000000
vt 0.687500 0.000000
vt 0.671875 0.062500
vt 0.671875 0.000000
vt 0.734375 0.000000
vt 0.734375 0.062500
vt 0.671875 0.078125
vt 0.718750 0.078125
vt 0.750000 0.000000
vt 0.750000 0.062500
vt 0.734375 0.062500
vt 0.734375 0.000000
vt 0.734375 0.078125
vt 0.765625 0.000000
vt 0.765625 0.062500
s 0
usemtl Material.001
f 70/95/18 80/96/18 84/97/18 78/98/18
f 82/99/19 79/100/19 74/95/19 73/101/19
f 73/102/20 74/98/20 75/103/20 76/104/20
f 77/101/20 78/95/20 84/98/20 83/102/20
f 80/105/21 81/106/21 83/100/21 84/99/21
f 72/98/22 82/97/22 73/107/22 76/103/22
f 79/100/18 69/108/18 75/96/18 74/95/18
f 71/109/19 70/110/19 78/111/19 77/112/19
f 81/106/22 71/113/22 77/108/22 83/100/22
f 69/114/21 72/115/21 76/110/21 75/109/21
o Cube.005
v 0.250000 -0.125000 -0.187500
v 0.250000 -0.125000 0.375000
v 0.250000 -0.187500 -0.187500
v 0.250000 -0.187500 0.375000
v 0.375000 -0.187500 -0.187500
v 0.375000 -0.187500 0.375000
v 0.375000 -0.125000 0.375000
v 0.375000 -0.125000 -0.187500
vn -0.0000 -0.0000 -1.0000
vn -0.0000 -0.0000 1.0000
vn -0.0000 -1.0000 -0.0000
vn -0.0000 1.0000 -0.0000
vn 1.0000 -0.0000 -0.0000
vt 0.515625 0.062500
vt 0.531250 0.062500
vt 0.531250 0.093750
vt 0.515625 0.093750
vt 0.515625 0.093750
vt 0.531250 0.125000
vt 0.515625 0.125000
vt 0.375000 0.093750
vt 0.375000 0.062500
vt 0.375000 0.125000
vt 0.515625 0.062500
vt 0.375000 0.062500
vt 0.375000 0.046875
vt 0.515625 0.046875
s 0
usemtl Material.001
f 87/116/23 85/117/23 92/118/23 89/119/23
f 86/120/24 88/118/24 90/121/24 91/122/24
f 87/116/25 89/119/25 90/123/25 88/124/25
f 86/120/26 91/122/26 92/125/26 85/123/26
f 90/126/27 89/127/27 92/128/27 91/129/27
o Cube.006
v 0.250000 0.125000 0.312500
v 0.250000 0.125000 -0.125000
v 0.250000 0.375000 -0.125000
v 0.250000 0.375000 0.312500
v 0.312500 0.125000 0.312500
v 0.312500 0.125000 -0.125000
v 0.312500 0.375000 -0.125000
v 0.312500 0.375000 0.312500
v 0.312500 0.125000 0.125000
v 0.312500 0.125000 0.062500
v 0.312500 0.375000 -0.062500
v 0.312500 0.375000 -0.000000
v 0.312500 0.375000 0.062500
v 0.312500 0.375000 0.125000
v 0.312500 0.375000 0.187500
v 0.312500 0.375000 0.250000
v 0.312500 0.187500 -0.062500
v 0.312500 0.187500 -0.000000
v 0.312500 0.187500 0.062500
v 0.312500 0.187500 0.125000
v 0.312500 0.187500 0.187500
v 0.312500 0.187500 0.250000
v 0.375000 0.375000 -0.062500
v 0.375000 0.375000 -0.000000
v 0.375000 0.375000 0.062500
v 0.375000 0.375000 0.125000
v 0.375000 0.375000 0.187500
v 0.375000 0.375000 0.250000
v 0.375000 0.187500 -0.062500
v 0.375000 0.187500 -0.000000
v 0.375000 0.187500 0.062500
v 0.375000 0.187500 0.125000
v 0.375000 0.187500 0.187500
v 0.375000 0.187500 0.250000
v 0.250000 0.125000 0.125000
v 0.250000 0.125000 0.062500
vn -0.0000 -1.0000 -0.0000
vn -0.0000 -0.0000 1.0000
vn -0.0000 -0.0000 -1.0000
vn 1.0000 -0.0000 -0.0000
vt 0.375000 0.187500
vt 0.422034 0.187500
vt 0.421875 0.203125
vt 0.375000 0.203125
vt 0.656250 0.187500
vt 0.718750 0.187500
vt 0.718750 0.203125
vt 0.656250 0.203125
vt 0.484375 0.187500
vt 0.546875 0.187500
vt 0.546875 0.203125
vt 0.484375 0.203125
vt 0.375000 0.046875
vt 0.375000 0.031250
vt 0.421875 0.031250
vt 0.421875 0.046875
vt 0.656250 0.484375
vt 0.640625 0.500000
vt 0.625000 0.500000
vt 0.609375 0.484375
vt 0.687500 0.546875
vt 0.671875 0.546875
vt 0.671875 0.500000
vt 0.687500 0.500000
vt 0.484375 0.015625
vt 0.437500 0.015625
vt 0.437500 -0.000000
vt 0.484375 -0.000000
vt 0.437500 0.046875
vt 0.437500 0.031250
vt 0.484375 0.046875
vt 0.484375 0.031250
vt 0.718750 0.484375
vt 0.703125 0.500000
vt 0.671875 0.484375
vt 0.718750 0.546875
vt 0.703125 0.546875
vt 0.625000 0.546875
vt 0.609375 0.546875
vt 0.609375 0.484375
vt 0.640625 0.546875
vt 0.656250 0.546875
vt 0.656250 0.500000
vt 0.375000 0.015625
vt 0.375000 -0.000000
vt 0.421875 -0.000000
vt 0.421875 0.015625
vt 0.437809 0.187500
vt 0.437500 0.203125
s 0
usemtl Material.001
f 93/130/28 127/131/28 101/132/28 97/133/28
f 96/134/29 93/135/29 97/136/29 100/137/29
f 94/138/30 95/139/30 99/140/30 98/141/30
f 107/142/30 119/143/30 125/144/30 113/145/30
f 101/146/31 113/147/31 114/148/31 97/149/31
f 104/150/31 105/151/31 111/152/31 110/153/31
f 106/154/29 112/155/29 124/156/29 118/157/29
f 114/158/28 113/145/28 125/144/28 126/159/28
f 108/160/29 114/158/29 126/159/29 120/161/29
f 98/162/31 109/163/31 110/153/31 102/164/31
f 98/162/31 99/165/31 103/166/31 109/163/31
f 108/167/31 100/168/31 97/169/31 114/148/31
f 119/170/31 120/167/31 126/148/31 125/147/31
f 117/151/31 118/171/31 124/172/31 123/152/31
f 115/166/31 116/150/31 122/153/31 121/163/31
f 104/161/29 110/159/29 122/155/29 116/154/29
f 105/173/30 117/174/30 123/175/30 111/176/30
f 106/171/31 107/170/31 113/147/31 112/172/31
f 110/159/28 109/144/28 121/176/28 122/155/28
f 103/143/30 115/173/30 121/176/30 109/144/30
f 112/155/28 111/176/28 123/175/28 124/156/28
f 113/147/31 101/146/31 111/152/31 112/172/31
f 110/153/31 111/152/31 101/146/31 102/164/31
f 101/132/28 127/131/28 128/177/28 102/178/28
f 102/178/28 128/177/28 94/138/28 98/141/28
